<svg alt="" aria-hidden="true" aria-label="movies" color="#fff" role="img" version="1.1" viewBox="0 0 36 36" xmlns="http://www.w3.org/2000/svg" data-route="MOVIES" style="color: white; fill: white;"><path d="M24.71 20.07a2.97 2.97 0 1 0-4.2-4.2 2.97 2.97 0 0 0 4.2 4.2m-12.262 0a2.97 2.97 0 1 0-4.2-4.2 2.97 2.97 0 0 0 4.2 4.2m6.173-10.31a2.969 2.969 0 1 0-4.199 4.198 2.969 2.969 0 0 0 4.199-4.198m0 12.262a2.969 2.969 0 1 0-4.199 4.198 2.969 2.969 0 0 0 4.199-4.198m-1.544-4.629a.846.846 0 1 0-1.197 1.196.846.846 0 0 0 1.197-1.196m18.06-.644c-3.33 6.913-8.165 9.928-11.635 11.24-2.57.971-4.762 1.178-5.949 1.208-.348.032-.698.053-1.052.053C10.287 29.25 5.25 24.213 5.25 18S10.287 6.75 16.5 6.75c6.214 0 11.25 5.037 11.25 11.25a11.19 11.19 0 0 1-2.493 7.054c2.832-1.612 5.844-4.382 8.138-9.143a.968.968 0 0 1 1.742.838" class="sc-kAzzGY dGwULW"></path></svg>